STARTFONT 2.1
FONT -FontForge-Untitled1-Regular-R-Normal--100-960-75-75-P-618-ISO8859-1
SIZE 96 75 75
FONTBOUNDINGBOX 89 114 -8 -26
COMMENT "Generated by fontforge, http://fontforge.sourceforge.net"
COMMENT "Copyright (c) 2020, Chris"
STARTPROPERTIES 31
FOUNDRY "FontForge"
FAMILY_NAME "Untitled1"
WEIGHT_NAME "Regular"
SLANT "R"
SETWIDTH_NAME "Normal"
ADD_STYLE_NAME ""
PIXEL_SIZE 100
POINT_SIZE 960
RESOLUTION_X 75
RESOLUTION_Y 75
SPACING "P"
AVERAGE_WIDTH 618
CHARSET_REGISTRY "ISO8859"
CHARSET_ENCODING "1"
FONTNAME_REGISTRY ""
CHARSET_COLLECTIONS "ISOLatin1Encoding"
FONT_NAME "Untitled1"
FACE_NAME "Untitled1"
COPYRIGHT "Copyright (c) 2020, Chris"
FONT_VERSION "001.000"
FONT_ASCENT 80
FONT_DESCENT 20
UNDERLINE_POSITION -10
UNDERLINE_THICKNESS 5
X_HEIGHT 51
CAP_HEIGHT 69
RAW_ASCENT 800
RAW_DESCENT 200
FIGURE_WIDTH -1
AVG_LOWERCASE_WIDTH 552
AVG_UPPERCASE_WIDTH 685
ENDPROPERTIES
CHARS 52
STARTCHAR A
ENCODING 65
SWIDTH 695 0
DWIDTH 70 0
BBX 57 72 6 -1
BITMAP
0000003F80000000
000000FFE0000000
000001FFF0000000
000003FFF0000000
000003FFF8000000
000007FFFC000000
000007FFFC000000
00000FFFFE000000
00000FFFFE000000
00001FFFFE000000
00001FFFFF000000
00001FFFFF000000
00003FFFFF000000
00003FFFFF800000
00003FFFFF800000
00007FFFFF800000
00007FFFFFC00000
00007FFFFFC00000
0000FFF3FFC00000
0000FFF3FFE00000
0000FFE1FFE00000
0001FFE1FFE00000
0001FFE1FFF00000
0001FFE1FFF00000
0003FFC0FFF00000
0003FFC0FFF80000
0003FFC0FFF80000
0007FF807FF80000
0007FF807FF80000
0007FF807FFC0000
000FFF803FFC0000
000FFF003FFC0000
000FFF003FFE0000
001FFF003FFE0000
001FFE001FFE0000
001FFE001FFF0000
003FFE001FFF0000
003FFC001FFF0000
003FFC000FFF0000
007FFC000FFF8000
007FFC000FFF8000
007FF80007FF8000
00FFF80007FFC000
00FFF80007FFC000
00FFFFFFFFFFFE00
01FFFFFFFFFFFF00
01FFFFFFFFFFFF80
01FFFFFFFFFFFF80
03FFFFFFFFFFFF80
03FFFFFFFFFFFF80
03FFFFFFFFFFFF80
07FFFFFFFFFFFF80
07FFFFFFFFFFFF80
07FFFFFFFFFFFF80
0FFFFFFFFFFFFF00
0FFF800000FFFC00
0FFF8000007FFC00
1FFF0000007FFC00
1FFF0000007FFC00
1FFF0000003FFE00
3FFE0000003FFE00
3FFE0000003FFE00
3FFE0000003FFF00
7FFE0000001FFF00
7FFC0000001FFF00
7FFC0000001FFF80
7FFC0000001FFF80
FFF80000000FFF80
7FF80000000FFF80
7FF80000000FFF00
3FF000000007FE00
0FE000000003FC00
ENDCHAR
STARTCHAR B
ENCODING 66
SWIDTH 656 0
DWIDTH 66 0
BBX 55 74 5 -3
BITMAP
00000FFFC00000
0001FFFFFE0000
000FFFFFFFC000
007FFFFFFFF000
01FFFFFFFFFC00
07FFFFFFFFFF00
0FFFFFFFFFFF80
1FFFFFFFFFFFC0
1FFFFFFFFFFFE0
1FFFFFFFFFFFF0
3FFFFE00FFFFF8
1FFFE0000FFFF8
1FFFE00003FFFC
1FFFE00000FFFC
05FFE000007FFE
01FFE000003FFE
01FFE000003FFE
01FFE000001FFE
01FFE000001FFE
01FFE000001FFE
01FFE000001FFE
01FFE000001FFE
01FFE000001FFE
01FFE000001FFE
01FFE000001FFE
01FFE000003FFC
01FFE000003FFC
01FFE000007FF8
01FFE00001FFF8
01FFE00007FFF0
01FFE0007FFFE0
01FFE0FFFFFFC0
01FFE3FFFFFF80
01FFE3FFFFFE00
01FFE7FFFFFC00
01FFE7FFFFE000
01FFE7FFFF8000
01FFE7FFFFF000
01FFE3FFFFFC00
01FFE3FFFFFF00
01FFE0FFFFFF80
01FFE0007FFFC0
01FFE00007FFE0
01FFE00001FFF0
01FFE00000FFF8
01FFE000007FF8
01FFE000007FFC
03FFE000003FFC
03FFE000003FFC
03FFC000003FFC
03FFC000003FFC
03FFC000003FFE
03FFC000003FFC
03FFC000003FFC
03FFC000003FFC
03FFC000007FFC
03FFC00000FFFC
03FFC00001FFFC
03FFC00003FFF8
0FFFC0001FFFF8
3FFFFFFFFFFFF0
7FFFFFFFFFFFF0
7FFFFFFFFFFFE0
FFFFFFFFFFFFC0
FFFFFFFFFFFF80
FFFFFFFFFFFF00
7FFFFFFFFFFC00
7FFFFFFFFFF800
7FFFFFFFFFC000
3FFFFFFFFF0000
07FFFFFFE00000
03FF0000000000
01FE0000000000
00780000000000
ENDCHAR
STARTCHAR C
ENCODING 67
SWIDTH 733 0
DWIDTH 73 0
BBX 65 71 5 0
BITMAP
0000001FFC0007E000
000001FFFFC01FF000
00000FFFFFF83FF800
00003FFFFFFC3FFC00
00007FFFFFFF3FFC00
0001FFFFFFFFBFFC00
0003FFFFFFFFFFFC00
0007FFFFFFFFFFFC00
000FFFFFFFFFFFFC00
001FFFFFFFFFFFFC00
003FFFFFFFFFFFFC00
007FFFFE03FFFFFC00
00FFFFF0003FFFFC00
01FFFFC0000FFFFC00
01FFFF000007FFFC00
03FFFC000003FFFC00
07FFF8000001FFFC00
07FFF0000000FFFC00
0FFFE00000007FF800
0FFFC00000003FF800
1FFFC00000003FF800
1FFF800000001FF000
1FFF0000000007E000
3FFF00000000000000
3FFE00000000000000
3FFE00000000000000
7FFC00000000000000
7FFC00000000000000
7FFC00000000000000
7FF800000000000000
7FF800000000000000
FFF800000000000000
FFF800000000000000
FFF000000000000000
FFF000000000000000
FFF000000000000000
FFF000000000000000
FFF000000000000000
FFF000000000000000
FFF000000000000000
FFF00000000000FC00
FFF00000000003FE00
FFF80000000007FF00
FFF80000000007FF80
7FF80000000007FF80
7FF80000000007FF80
7FFC0000000007FF80
7FFC000000000FFF80
7FFE000000000FFF80
3FFE000000000FFF80
3FFF000000000FFF80
3FFF800000001FFF00
1FFF800000001FFF00
1FFFC00000003FFF00
0FFFE00000007FFE00
0FFFF8000000FFFE00
07FFFC000001FFFC00
03FFFF000007FFFC00
03FFFFC0001FFFF800
01FFFFFC01FFFFF800
00FFFFFFFFFFFFF000
007FFFFFFFFFFFE000
003FFFFFFFFFFFC000
001FFFFFFFFFFF8000
0007FFFFFFFFFF0000
0003FFFFFFFFFC0000
0000FFFFFFFFF80000
00003FFFFFFFE00000
00000FFFFFFF000000
000001FFFFF8000000
0000000FFF80000000
ENDCHAR
STARTCHAR D
ENCODING 68
SWIDTH 707 0
DWIDTH 71 0
BBX 59 73 7 0
BITMAP
0038000000000000
01FF000000000000
1FFF800000000000
7FFFFF8000000000
7FFFFFF800000000
FFFFFFFF80000000
FFFFFFFFF0000000
FFFFFFFFFE000000
FFFFFFFFFF800000
FFFFFFFFFFE00000
7FFFFFFFFFF80000
7FFFFFFFFFFC0000
1FFFFFFFFFFF0000
03FFFFFFFFFF8000
03FFC0FFFFFFC000
03FFC00FFFFFE000
03FFC001FFFFF000
03FFC0003FFFF800
03FFC0000FFFF800
03FFC00007FFFC00
03FFC00001FFFE00
03FFC00000FFFE00
03FFC000007FFF00
03FFC000003FFF00
03FFC000001FFF80
03FFC000001FFF80
03FFC000000FFF80
03FFC000000FFF80
03FFC0000007FFC0
03FFC0000007FFC0
03FFC0000003FFC0
03FFC0000003FFC0
03FFC0000003FFC0
03FFC0000003FFC0
03FFC0000003FFE0
03FFC0000003FFE0
03FFC0000003FFE0
03FFC0000003FFE0
03FFE0000003FFE0
03FFE0000003FFC0
03FFE0000003FFC0
03FFE0000003FFC0
03FFE0000003FFC0
03FFE0000007FFC0
03FFE0000007FFC0
03FFE0000007FFC0
03FFE000000FFF80
03FFE000000FFF80
01FFE000001FFF80
01FFE000001FFF00
01FFE000003FFF00
01FFE000007FFF00
01FFE00000FFFE00
01FFE00001FFFE00
01FFE00003FFFC00
01FFE00007FFF800
01FFE0000FFFF800
01FFE0003FFFF000
01FFE000FFFFE000
01FFE003FFFFC000
01FFE01FFFFFC000
01FFE1FFFFFF8000
1FFFFFFFFFFE0000
7FFFFFFFFFFC0000
7FFFFFFFFFF80000
FFFFFFFFFFE00000
FFFFFFFFFFC00000
FFFFFFFFFF000000
FFFFFFFFFC000000
7FFFFFFFE0000000
7FFFFFFF00000000
3FFFFFF800000000
1FFFFE0000000000
ENDCHAR
STARTCHAR E
ENCODING 69
SWIDTH 618 0
DWIDTH 62 0
BBX 52 69 6 1
BITMAP
007FFFFFFFE000
03FFFFFFFFFF80
0FFFFFFFFFFFE0
0FFFFFFFFFFFE0
1FFFFFFFFFFFF0
1FFFFFFFFFFFF0
1FFFFFFFFFFFF0
1FFFFFFFFFFFF0
0FFFFFFFFFFFE0
0FFFFFFFFFFFE0
07FFFFFFFFFFC0
03FFC000000700
03FFC000000000
03FFC000000000
03FFE000000000
03FFE000000000
03FFE000000000
03FFE000000000
03FFE000000000
03FFE000000000
03FFE000000000
03FFE000000000
03FFE000000000
03FFE000000000
03FFE000000000
03FFE000000000
03FFE000000000
03FFE000000000
1FFFFFFFFF8000
3FFFFFFFFFE000
3FFFFFFFFFF000
7FFFFFFFFFF000
7FFFFFFFFFF000
7FFFFFFFFFF000
7FFFFFFFFFF000
7FFFFFFFFFF000
3FFFFFFFFFF000
3FFFFFFFFFE000
0FFFFFFFFFC000
03FFE000000000
03FFE000000000
03FFE000000000
03FFE000000000
03FFE000000000
03FFE000000000
03FFC000000000
03FFC000000000
03FFC000000000
03FFC000000000
03FFC000000000
03FFC000000000
03FFC000000000
03FFC000000000
03FFC000000000
07FFC000000000
07FFC000000000
07FFC000000000
3FFF8000001F00
7FFFFFFFFFFFC0
7FFFFFFFFFFFC0
7FFFFFFFFFFFE0
FFFFFFFFFFFFE0
FFFFFFFFFFFFE0
FFFFFFFFFFFFE0
7FFFFFFFFFFFE0
7FFFFFFFFFFFE0
3FFFFFFFFFFFC0
0FFFFFFFFFFF00
0003FFFFFFF000
ENDCHAR
STARTCHAR F
ENCODING 70
SWIDTH 614 0
DWIDTH 61 0
BBX 52 76 6 0
BITMAP
007F0000000000
01FF8000000000
03FFC000000000
03FFC000000000
03FFC000000000
03FFFFFFFF8000
3FFFFFFFFFFF00
7FFFFFFFFFFFC0
7FFFFFFFFFFFE0
FFFFFFFFFFFFE0
FFFFFFFFFFFFF0
FFFFFFFFFFFFF0
FFFFFFFFFFFFF0
FFFFFFFFFFFFE0
7FFFFFFFFFFFE0
7FFFFFFFFFFFE0
0FFFE000007F80
01FFE000000000
01FFE000000000
01FFE000000000
01FFF000000000
01FFF000000000
01FFF000000000
01FFF000000000
01FFF000000000
01FFF000000000
00FFF000000000
00FFF000000000
00FFF000000000
00FFF000000000
00FFF000000000
00FFF000000000
00FFF000000000
00FFF000000000
00FFF000000000
00FFFFFFFC0000
0FFFFFFFFFE000
3FFFFFFFFFF800
7FFFFFFFFFFC00
7FFFFFFFFFFC00
FFFFFFFFFFFC00
FFFFFFFFFFFC00
FFFFFFFFFFFC00
7FFFFFFFFFFC00
7FFFFFFFFFFC00
3FFFFFFFFFF800
1FFFF00000E000
00FFF000000000
00FFF000000000
00FFF000000000
00FFF000000000
00FFF000000000
00FFF000000000
00FFF000000000
00FFF000000000
00FFF000000000
00FFF000000000
00FFF000000000
01FFF000000000
01FFF000000000
01FFF000000000
01FFF000000000
01FFF000000000
01FFE000000000
01FFE000000000
01FFE000000000
01FFE000000000
01FFE000000000
01FFE000000000
01FFE000000000
01FFE000000000
01FFE000000000
01FFE000000000
01FFC000000000
00FF8000000000
003F0000000000
ENDCHAR
STARTCHAR G
ENCODING 71
SWIDTH 760 0
DWIDTH 76 0
BBX 68 69 5 0
BITMAP
0000003FFE00000000
000003FFFFE0000000
00000FFFFFF801F800
00003FFFFFFE03FC00
0000FFFFFFFF07FE00
0003FFFFFFFF8FFF00
0007FFFFFFFFEFFF00
000FFFFFFFFFEFFF00
001FFFFFFFFFFFFF00
007FFFFFFFFFFFFF00
007FFFFFFFFFFFFF00
00FFFFFC007FFFFF00
01FFFFE0000FFFFF00
03FFFF000007FFFE00
07FFFC000001FFFE00
07FFF8000000FFFE00
0FFFF00000003FFE00
0FFFE00000001FFC00
1FFFC00000000FF800
1FFF8000000007F000
3FFF00000000000000
3FFE00000000000000
3FFE00000000000000
7FFC00000000000000
7FFC00000000000000
7FF800000000000000
7FF800000000000000
FFF800000000000000
FFF800000000000000
FFF000000000000000
FFF000000000000000
FFF000001FFFFFFF00
FFF000007FFFFFFFC0
FFF000007FFFFFFFE0
FFF00000FFFFFFFFF0
FFF00000FFFFFFFFF0
FFF00000FFFFFFFFF0
FFF00000FFFFFFFFF0
FFF000007FFFFFFFF0
FFF800007FFFFFFFE0
FFF800003FFFFFFFC0
7FF8000007FFFFFF80
7FF8000000007FF800
7FFC000000007FF800
7FFC000000007FF800
3FFE000000007FF800
3FFE000000007FF800
3FFF00000000FFF800
1FFF00000000FFF000
1FFF80000000FFF000
0FFFC0000001FFF000
0FFFE0000001FFF000
07FFF0000003FFE000
07FFF8000007FFE000
03FFFC00000FFFE000
01FFFF00001FFFC000
01FFFFC0007FFFC000
00FFFFFC01FFFF8000
007FFFFFFFFFFF0000
003FFFFFFFFFFF0000
001FFFFFFFFFFE0000
000FFFFFFFFFFC0000
0003FFFFFFFFF80000
0001FFFFFFFFF00000
00007FFFFFFFE00000
00001FFFFFFF800000
000007FFFFFE000000
000000FFFFF8000000
0000000FFF80000000
ENDCHAR
STARTCHAR H
ENCODING 72
SWIDTH 774 0
DWIDTH 77 0
BBX 64 73 7 -1
BITMAP
000FC0000001FC00
003FF0000003FE00
007FF0000007FF00
007FF8000007FF80
007FF8000007FF80
007FF8000007FF80
00FFF8000007FF80
00FFF8000007FF80
00FFF8000007FF80
00FFF8000007FF80
00FFF8000007FF80
00FFF0000007FF80
00FFF0000007FF80
00FFF0000007FF80
00FFF0000007FF80
00FFF0000007FF80
00FFF0000007FF80
00FFF0000007FF80
00FFF0000007FF80
01FFF0000007FF80
01FFF0000007FF80
01FFF0000007FF80
01FFF0000007FF80
01FFE0000007FF80
01FFE0000007FFC0
01FFE0000007FFC0
01FFE0000007FFC0
01FFE0000007FFC0
01FFE0000007FFC0
01FFE0000007FFC0
01FFE0000007FFC0
03FFE0000007FFC0
03FFE0000007FFC0
03FFE0000007FFC0
3FFFFFFFFFFFFFC0
7FFFFFFFFFFFFFFC
FFFFFFFFFFFFFFFE
FFFFFFFFFFFFFFFF
FFFFFFFFFFFFFFFF
FFFFFFFFFFFFFFFF
FFFFFFFFFFFFFFFF
FFFFFFFFFFFFFFFF
FFFFFFFFFFFFFFFF
7FFFFFFFFFFFFFFE
3FFFFFFFFFFFFFFE
07FFC00003FFFFF8
07FFC0000003FFC0
07FFC0000003FFC0
07FFC0000003FFC0
07FF80000003FFC0
07FF80000003FFC0
07FF80000003FFC0
07FF80000003FFC0
07FF80000003FFC0
07FF80000003FFC0
07FF80000003FFC0
0FFF80000003FFC0
0FFF80000003FFC0
0FFF80000003FFC0
0FFF80000003FFE0
0FFF80000003FFE0
0FFF00000003FFE0
0FFF00000003FFE0
0FFF00000003FFE0
0FFF00000003FFE0
0FFF00000003FFE0
0FFF00000003FFE0
0FFF00000003FFE0
0FFF00000001FFC0
0FFF00000001FFC0
0FFE00000000FF80
07FE000000007F00
01F8000000000000
ENDCHAR
STARTCHAR I
ENCODING 73
SWIDTH 486 0
DWIDTH 49 0
BBX 41 70 4 1
BITMAP
03FFFFFFF800
3FFFFFFFFE00
7FFFFFFFFF00
FFFFFFFFFF80
FFFFFFFFFF80
FFFFFFFFFF80
FFFFFFFFFF80
FFFFFFFFFF80
FFFFFFFFFF00
FFFFFFFFFF00
7FFFFFFFFE00
1E00FFF00000
0000FFF00000
0000FFF00000
0000FFF00000
0000FFF00000
0000FFF00000
0000FFF00000
0000FFF00000
0000FFF00000
0000FFF00000
0000FFF00000
0000FFF00000
0000FFF00000
0000FFF00000
0000FFF00000
0000FFF00000
0000FFF00000
0000FFF00000
0000FFF00000
0000FFF00000
0000FFF00000
0000FFF00000
0000FFF00000
0000FFF00000
0000FFF00000
0000FFF00000
0000FFF00000
0000FFF00000
0000FFF00000
0001FFF00000
0001FFF00000
0001FFF00000
0001FFF00000
0001FFF00000
0001FFF00000
0001FFF00000
0001FFF00000
0001FFE00000
0001FFE00000
0001FFE00000
0001FFE00000
0001FFE00000
0001FFE00000
0001FFE00000
0001FFE00000
0001FFE00000
0001FFE00000
0001FFE00000
1FFFFFFFF800
7FFFFFFFFE00
7FFFFFFFFF00
FFFFFFFFFF80
FFFFFFFFFF80
FFFFFFFFFF80
FFFFFFFFFF80
FFFFFFFFFF80
7FFFFFFFFF00
3FFFFFFFFF00
1FFFFFFFFE00
ENDCHAR
STARTCHAR J
ENCODING 74
SWIDTH 622 0
DWIDTH 62 0
BBX 55 70 3 0
BITMAP
0000003FFFFFF0
000000FFFFFFFC
000000FFFFFFFC
000001FFFFFFFE
000001FFFFFFFE
000001FFFFFFFE
000001FFFFFFFE
000000FFFFFFFE
000000FFFFFFFC
0000007FFFFFF8
0000000FFFFFC0
000000003FFC00
000000003FFC00
000000003FFC00
000000003FFC00
000000003FFC00
000000003FFC00
000000003FFC00
000000003FFC00
000000003FFC00
000000003FFC00
000000003FFC00
000000007FFC00
000000007FFC00
000000007FFC00
000000007FFC00
000000007FFC00
000000007FFC00
000000007FFC00
000000007FFC00
000000007FFC00
000000007FFC00
000000007FFC00
000000007FFC00
000000007FFC00
000000007FFC00
000000007FFC00
000000007FFC00
1FC000007FFC00
3FE000007FFC00
7FF000007FFC00
7FF000007FFC00
7FF800007FFC00
FFF800007FFC00
FFF800007FFC00
FFF800007FFC00
FFF800007FFC00
FFF800007FFC00
7FF800007FFC00
7FF800007FFC00
7FF800007FF800
7FFC0000FFF800
7FFC0000FFF800
7FFC0001FFF800
3FFE0001FFF000
3FFF0003FFF000
3FFF0007FFF000
1FFF800FFFE000
1FFFF07FFFE000
0FFFFFFFFFC000
0FFFFFFFFFC000
07FFFFFFFF8000
03FFFFFFFF0000
01FFFFFFFE0000
01FFFFFFFC0000
007FFFFFF80000
003FFFFFF00000
000FFFFFC00000
0003FFFF000000
00003FF0000000
ENDCHAR
STARTCHAR K
ENCODING 75
SWIDTH 641 0
DWIDTH 64 0
BBX 54 70 7 0
BITMAP
0F8000000007C0
3FE00000000FF0
7FF00000003FF8
7FF00000007FF8
FFF8000001FFFC
FFF8000003FFFC
FFF8000007FFFC
FFF800001FFFFC
FFF800003FFFF8
FFF800007FFFF0
FFF80001FFFFE0
FFF80003FFFFC0
FFF8000FFFFF80
FFF8001FFFFE00
FFF8007FFFFC00
FFF800FFFFF000
FFF801FFFFE000
FFF807FFFF8000
FFF80FFFFF0000
FFF83FFFFC0000
7FF87FFFF00000
7FF8FFFFE00000
7FFBFFFF800000
7FFFFFFF000000
7FFFFFFC000000
7FFFFFF8000000
7FFFFFE0000000
7FFFFFC0000000
7FFFFF00000000
7FFFFC00000000
7FFFF800000000
7FFFE000000000
7FFFC000000000
7FFFC000000000
7FFFE000000000
7FFFF000000000
7FFFF800000000
7FFFFE00000000
7FFFFF00000000
7FFFFF80000000
7FFFFFC0000000
7FFFFFE0000000
7FFFFFF0000000
7FFFFFFC000000
7FFBFFFE000000
7FF9FFFF000000
7FF8FFFF800000
FFF87FFFC00000
FFF83FFFE00000
FFF81FFFF80000
FFF80FFFFC0000
FFF803FFFE0000
FFF801FFFF0000
FFF800FFFFC000
FFF8007FFFE000
FFF0003FFFF000
FFF0001FFFF800
FFF0000FFFFE00
FFF00003FFFF00
FFF00001FFFF80
FFF00000FFFFC0
FFF000007FFFE0
FFF000003FFFF0
FFF000001FFFF0
FFF0000007FFF0
FFF0000003FFF0
FFF0000001FFF0
7FE0000000FFE0
7FE00000007FC0
1F800000001F80
ENDCHAR
STARTCHAR L
ENCODING 76
SWIDTH 562 0
DWIDTH 56 0
BBX 47 71 6 0
BITMAP
002000000000
03FC00000000
07FE00000000
0FFF00000000
0FFF00000000
0FFF00000000
0FFF00000000
0FFF00000000
1FFF00000000
1FFF00000000
1FFF00000000
1FFE00000000
1FFE00000000
1FFE00000000
1FFE00000000
3FFE00000000
3FFE00000000
3FFE00000000
3FFC00000000
3FFC00000000
3FFC00000000
3FFC00000000
7FFC00000000
7FFC00000000
7FFC00000000
7FF800000000
7FF800000000
7FF800000000
7FF800000000
7FF800000000
7FF800000000
7FF800000000
FFF000000000
FFF000000000
FFF000000000
FFF000000000
FFF000000000
FFF000000000
FFF000000000
FFF000000000
FFF000000000
FFF000000000
FFF000000000
FFF000000000
FFF000000000
FFF000000000
FFF000000000
FFF000000000
FFF000000000
FFF000000000
FFF000000000
FFF000000000
FFF000000000
FFF000000000
FFF000000000
FFF000000000
FFF800000000
FFF800000000
7FF8000007F8
7FFE0003FFFC
7FFFFFFFFFFE
7FFFFFFFFFFE
7FFFFFFFFFFE
3FFFFFFFFFFE
3FFFFFFFFFFE
1FFFFFFFFFFE
0FFFFFFFFFFC
07FFFFFFFFF8
03FFFFFFFFC0
007FFFFFF800
0007FFFC0000
ENDCHAR
STARTCHAR M
ENCODING 77
SWIDTH 805 0
DWIDTH 81 0
BBX 66 72 7 -1
BITMAP
003F800000003F0000
007FE0000000FFC000
01FFF0000003FFE000
03FFFC000007FFF000
03FFFE00000FFFF800
07FFFE00001FFFFC00
07FFFF00001FFFFC00
0FFFFF80003FFFFC00
0FFFFF80007FFFFE00
1FFFFFC0007FFFFE00
1FFFFFC000FFFFFE00
1FFFFFE000FFFFFF00
1FFFFFE001FFFFFF00
3FFFFFF001FFFFFF00
3FFFFFF003FFFFFF00
3FFEFFF803FFCFFF00
3FFC7FF803FF8FFF80
3FFC7FF807FF8FFF80
3FFC3FFC07FF07FF80
7FFC3FFC07FF07FF80
7FFC1FFC0FFE07FF80
7FF81FFE0FFE07FF80
7FF80FFE1FFC07FF80
7FF80FFE1FFC07FF80
7FF807FE1FFC07FF80
7FF807FF1FF807FF80
7FF807FF3FF807FF80
7FF803FF3FF003FF80
7FF803FF3FF003FFC0
7FF803FFFFF003FFC0
7FF801FFFFE003FFC0
7FF801FFFFE003FFC0
7FF801FFFFE003FFC0
7FF800FFFFC003FFC0
7FF800FFFFC003FFC0
7FF800FFFFC003FFC0
7FF800FFFFC003FFC0
7FF8007FFF8003FFC0
7FF8007FFF8003FFC0
7FF8007FFF8003FFC0
7FF8003FFF8003FFC0
7FF8003FFF0003FFC0
7FF8003FFF0003FFC0
7FF8003FFF0003FFC0
7FF8001FFF0003FFC0
7FF8001FFE0003FFC0
7FF80007FC0003FFC0
7FF80001E00003FFC0
7FF80000000003FFC0
7FF80000000003FFC0
7FF80000000003FFC0
FFF80000000003FFC0
FFF80000000003FFC0
FFF80000000003FFC0
FFF80000000003FFC0
FFF80000000003FFC0
FFF80000000003FFC0
FFF80000000003FFC0
FFF80000000003FFC0
FFF80000000003FFC0
FFF80000000003FFC0
FFF80000000003FFC0
FFF80000000003FFC0
FFF80000000003FFC0
FFF80000000003FFC0
FFF80000000003FFC0
FFF80000000003FFC0
7FF80000000003FFC0
7FF00000000003FFC0
7FF00000000001FF80
3FE00000000000FF00
000000000000007E00
ENDCHAR
STARTCHAR N
ENCODING 78
SWIDTH 752 0
DWIDTH 75 0
BBX 61 70 7 1
BITMAP
0380000000001FC0
1FF0000000003FF0
3FF8000000007FF0
3FFE000000007FF8
7FFF000000007FF8
7FFF80000000FFF8
7FFF80000000FFF8
7FFFC0000000FFF8
7FFFE0000000FFF8
FFFFF0000000FFF8
FFFFF0000000FFF8
FFFFF8000000FFF8
FFFFFC000000FFF8
FFFFFC000000FFF8
FFFFFE000000FFF8
FFFFFF000000FFF8
FFFFFF000000FFF8
FFFFFF800000FFF8
FFFFFFC00000FFF8
FFFFFFC00000FFF8
FFFFFFE00000FFF8
FFFFFFF00000FFF8
FFFBFFF00000FFF8
FFF9FFF80000FFF8
FFF9FFF80000FFF8
FFF8FFFC0000FFF8
FFF87FFE0000FFF8
FFF87FFE0000FFF8
FFF83FFF0000FFF8
FFF83FFF8000FFF8
FFF81FFF8000FFF8
FFF80FFFC000FFF8
FFF80FFFE000FFF8
FFF807FFE000FFF8
FFF803FFF000FFF8
FFF803FFF000FFF8
FFF801FFF800FFF8
FFF801FFFC00FFF8
FFF800FFFC00FFF8
FFF8007FFE00FFF8
FFF8007FFF00FFF8
FFF8003FFF00FFF8
FFF8003FFF80FFF8
FFF8001FFF80FFF8
FFF8000FFFC0FFF8
FFF8000FFFE0FFF8
FFF80007FFE0FFF8
FFF80003FFF0FFF8
FFF80003FFF8FFF0
FFF80001FFF8FFF0
FFF80000FFFCFFF0
FFF80000FFFCFFF0
FFF800007FFEFFF0
FFF800007FFFFFF0
FFF800003FFFFFF0
FFF800001FFFFFF0
FFF800000FFFFFF0
FFF800000FFFFFF0
FFF8000007FFFFF0
FFF8000003FFFFF0
FFF8000003FFFFE0
FFF8000001FFFFE0
FFF8000000FFFFE0
FFF80000007FFFE0
FFF80000003FFFC0
7FF80000001FFFC0
7FF80000000FFFC0
7FF000000007FF80
3FE000000003FF00
0FC0000000007C00
ENDCHAR
STARTCHAR O
ENCODING 79
SWIDTH 805 0
DWIDTH 81 0
BBX 70 70 5 1
BITMAP
0000000FFF00000000
000001FFFFF8000000
000007FFFFFF000000
00001FFFFFFFC00000
00007FFFFFFFF00000
0001FFFFFFFFFC0000
0003FFFFFFFFFE0000
000FFFFFFFFFFF8000
001FFFFFFFFFFFC000
003FFFFFFFFFFFE000
007FFFFFFFFFFFF000
00FFFFFC00FFFFF800
00FFFFC0001FFFFC00
01FFFF000003FFFE00
03FFFC000001FFFE00
03FFF80000007FFF00
07FFF00000003FFF80
0FFFE00000001FFF80
0FFFC00000000FFFC0
1FFF8000000007FFC0
1FFF0000000003FFE0
1FFF0000000003FFE0
3FFE0000000001FFF0
3FFE0000000001FFF0
3FFC0000000000FFF8
7FFC0000000000FFF8
7FFC00000000007FF8
7FF800000000007FF8
7FF800000000007FFC
7FF800000000007FFC
FFF800000000003FFC
FFF800000000003FFC
FFF000000000003FFC
FFF000000000003FFC
FFF000000000003FFC
FFF000000000003FFC
FFF000000000003FFC
FFF000000000003FFC
FFF000000000003FFC
FFF000000000003FFC
FFF800000000003FFC
FFF800000000003FFC
FFF800000000003FFC
7FF800000000007FFC
7FF800000000007FFC
7FFC00000000007FF8
7FFC0000000000FFF8
3FFE0000000000FFF8
3FFE0000000001FFF8
3FFF0000000001FFF0
1FFF0000000003FFF0
1FFF8000000007FFE0
1FFFC00000000FFFE0
0FFFE00000001FFFC0
07FFF00000003FFFC0
07FFFC000000FFFF80
03FFFF000001FFFF00
03FFFFC0000FFFFF00
01FFFFFC00FFFFFE00
00FFFFFFFFFFFFFC00
007FFFFFFFFFFFF800
003FFFFFFFFFFFF000
001FFFFFFFFFFFE000
0007FFFFFFFFFF8000
0003FFFFFFFFFF0000
0000FFFFFFFFFC0000
00003FFFFFFFF00000
00000FFFFFFF800000
000001FFFFFC000000
0000000FFFC0000000
ENDCHAR
STARTCHAR P
ENCODING 80
SWIDTH 659 0
DWIDTH 66 0
BBX 58 72 4 -1
BITMAP
007F000000000000
01FFC1FFE0000000
01FFFFFFFF000000
03FFFFFFFFE00000
03FFFFFFFFF80000
03FFFFFFFFFE0000
03FFFFFFFFFF0000
03FFFFFFFFFFC000
0FFFFFFFFFFFE000
1FFFFFFFFFFFF000
7FFFFFFFFFFFF800
7FFFFFFFFFFFFC00
FFFFFE003FFFFC00
FFFFE00007FFFE00
FFFFC00001FFFF00
7FFFC00000FFFF00
7FFFC000007FFF80
3FFFE000003FFF80
1FFFE000001FFF80
03FFE000001FFFC0
03FFE000000FFFC0
03FFE000000FFFC0
03FFE000000FFFC0
03FFE000000FFFC0
03FFE000000FFFC0
03FFE000000FFFC0
03FFE000000FFFC0
03FFE000000FFFC0
03FFE000001FFFC0
03FFE000001FFFC0
03FFE000003FFF80
03FFE000007FFF80
03FFE00000FFFF00
01FFE00001FFFF00
01FFF80007FFFE00
01FFFF803FFFFE00
01FFFFFFFFFFFC00
01FFFFFFFFFFF800
01FFFFFFFFFFF000
01FFFFFFFFFFE000
01FFFFFFFFFFC000
01FFFFFFFFFF8000
01FFFFFFFFFE0000
01FFFFFFFFF80000
01FFE7FFFFC00000
01FFE07FFC000000
01FFE00000000000
01FFE00000000000
01FFE00000000000
03FFE00000000000
03FFE00000000000
03FFE00000000000
03FFE00000000000
03FFE00000000000
03FFE00000000000
03FFE00000000000
03FFE00000000000
03FFE00000000000
03FFE00000000000
03FFE00000000000
03FFE00000000000
03FFE00000000000
03FFE00000000000
03FFE00000000000
03FFE00000000000
03FFE00000000000
03FFE00000000000
03FFE00000000000
01FFC00000000000
01FFC00000000000
00FF000000000000
0008000000000000
ENDCHAR
STARTCHAR Q
ENCODING 81
SWIDTH 796 0
DWIDTH 80 0
BBX 69 70 5 1
BITMAP
0000000FFF00000000
000000FFFFF0000000
000007FFFFFE000000
00001FFFFFFFC00000
00007FFFFFFFE00000
0000FFFFFFFFF80000
0003FFFFFFFFFE0000
0007FFFFFFFFFF0000
000FFFFFFFFFFF8000
001FFFFFFFFFFFC000
003FFFFFFFFFFFE000
007FFFFC01FFFFF000
00FFFFE0001FFFF800
01FFFF000007FFFC00
01FFFE000001FFFE00
03FFF8000000FFFE00
07FFF00000007FFF00
07FFE00000003FFF80
0FFFC00000001FFF80
0FFF800000000FFFC0
1FFF8000000007FFC0
1FFF0000000007FFE0
3FFF0000000003FFE0
3FFE0000000003FFE0
3FFE0000000001FFF0
7FFC0000000001FFF0
7FFC0000000000FFF0
7FF80000000000FFF8
7FF80000000000FFF8
7FF800000000007FF8
FFF800000000007FF8
FFF800000000007FF8
FFF800000000007FF8
FFF000000000007FF8
FFF000000000007FF8
FFF000000000007FF8
FFF000000000007FF8
FFF000000000007FF8
FFF000000000007FF8
FFF800000000007FF8
FFF80000000000FFF8
FFF80000003F00FFF8
7FF80000007F80FFF8
7FF8000000FFC0FFF0
7FFC000001FFE1FFF0
7FFC000003FFF1FFF0
7FFC000003FFFBFFF0
3FFE000003FFFFFFE0
3FFE000003FFFFFFE0
3FFF000001FFFFFFC0
1FFF800001FFFFFFC0
1FFF800000FFFFFF80
0FFFC000003FFFFF80
0FFFE000001FFFFF00
07FFF000000FFFFF00
07FFFC000007FFFE00
03FFFE00000FFFFE00
01FFFF80007FFFFF00
01FFFFF803FFFFFF80
00FFFFFFFFFFFFFFE0
007FFFFFFFFFFFFFE0
003FFFFFFFFFFFFFF0
001FFFFFFFFFFFFFF0
0007FFFFFFFFFFFFF0
0003FFFFFFFFFBFFF0
0000FFFFFFFFF1FFF0
00007FFFFFFFC0FFF0
00000FFFFFFE007FE0
000003FFFFF0003FC0
0000001FFF00001F80
ENDCHAR
STARTCHAR R
ENCODING 82
SWIDTH 675 0
DWIDTH 68 0
BBX 58 71 4 0
BITMAP
00FF00FFF0000000
01FF8FFFFF800000
03FFFFFFFFF00000
03FFFFFFFFFC0000
03FFFFFFFFFF0000
07FFFFFFFFFFC000
07FFFFFFFFFFE000
0FFFFFFFFFFFF000
1FFFFFFFFFFFF800
3FFFFFFFFFFFFC00
7FFFFFFFFFFFFE00
7FFFFF803FFFFE00
FFFFF80003FFFF00
FFFFC00000FFFF00
FFFFC000007FFF80
7FFFC000003FFF80
7FFFC000001FFFC0
7FFFC000001FFFC0
3FFFC000000FFFC0
03FFC000000FFFC0
03FFC000000FFFC0
03FFC000000FFFC0
03FFC000000FFFC0
03FFC000000FFFC0
03FFC000000FFFC0
03FFC000000FFFC0
03FFC000000FFFC0
03FFC000001FFF80
03FFC000003FFF80
03FFC000007FFF80
03FFC00000FFFF00
03FFC00003FFFF00
03FFC0001FFFFE00
03FFFFFFFFFFFC00
03FFFFFFFFFFF800
03FFFFFFFFFFF000
03FFFFFFFFFFE000
03FFFFFFFFFFC000
03FFFFFFFFFF0000
03FFFFFFFFFE0000
03FFFFFFFFF00000
03FFFFFFFF800000
03FFFFFFF0000000
03FFFFF000000000
03FFFFFC00000000
03FFFFFF00000000
03FFFFFF80000000
03FFFFFFE0000000
03FFFFFFF8000000
03FFFFFFFC000000
03FFDFFFFF000000
03FFCFFFFFC00000
03FFC3FFFFE00000
03FFC1FFFFF80000
03FFC07FFFFE0000
03FFC01FFFFF0000
03FFC00FFFFFC000
03FFC003FFFFF000
03FFC001FFFFFC00
03FFC0007FFFFE00
03FFC0001FFFFF00
03FFC0000FFFFF80
03FFC00003FFFF80
03FFC00001FFFF80
03FFC000007FFF80
03FFC000001FFF80
03FFC000000FFF00
03FFC0000003FF00
01FF80000000FC00
00FF800000000000
007E000000000000
ENDCHAR
STARTCHAR S
ENCODING 83
SWIDTH 605 0
DWIDTH 61 0
BBX 49 71 6 0
BITMAP
00003FF8000000
0001FFFF800000
000FFFFFE00000
003FFFFFF80000
007FFFFFFE0000
01FFFFFFFF0000
03FFFFFFFFC000
07FFFFFFFFE000
0FFFFFFFFFE000
0FFFFFFFFFF000
1FFFFFFFFFF800
3FFFF00FFFFC00
3FFF8003FFFC00
7FFF0000FFFE00
7FFE00007FFE00
7FFC00003FFE00
FFF800003FFF00
FFF800001FFF00
FFF000001FFF00
FFF000000FFF00
FFF000000FFF00
FFF000000FFF00
FFF000000FFF00
FFF8000007FF00
FFF8000003FE00
7FFC000001FC00
7FFE0000000000
7FFF8000000000
3FFFF000000000
3FFFFE00000000
1FFFFFC0000000
0FFFFFF8000000
07FFFFFF000000
03FFFFFFC00000
01FFFFFFF80000
00FFFFFFFE0000
003FFFFFFF0000
001FFFFFFF8000
0003FFFFFFE000
00007FFFFFF000
00000FFFFFF800
000001FFFFF800
0000003FFFFC00
1FC00007FFFE00
7FE00001FFFE00
7FF000007FFF00
FFF000003FFF00
FFF000001FFF00
FFF800000FFF00
FFF800000FFF00
FFF800000FFF80
FFF800000FFF80
FFF800000FFF80
7FFC00000FFF00
7FFC00000FFF00
7FFE00001FFF00
3FFF00001FFF00
3FFF80003FFF00
1FFFE000FFFE00
1FFFF807FFFE00
0FFFFFFFFFFC00
0FFFFFFFFFFC00
07FFFFFFFFF800
03FFFFFFFFF000
01FFFFFFFFE000
00FFFFFFFFC000
003FFFFFFF8000
001FFFFFFE0000
0007FFFFF80000
0000FFFFE00000
00000FFE000000
ENDCHAR
STARTCHAR T
ENCODING 84
SWIDTH 580 0
DWIDTH 58 0
BBX 52 71 3 -1
BITMAP
0003FFFFFFF800
0FFFFFFFFFFF80
3FFFFFFFFFFFE0
7FFFFFFFFFFFE0
FFFFFFFFFFFFF0
FFFFFFFFFFFFF0
FFFFFFFFFFFFF0
FFFFFFFFFFFFF0
FFFFFFFFFFFFE0
7FFFFFFFFFFFE0
7FFFFFFFFFFFC0
1FFC0FFF003F00
00000FFF000000
00000FFF000000
00000FFF000000
00000FFF000000
00000FFF000000
00000FFF000000
00001FFF000000
00001FFF000000
00001FFF000000
00001FFF000000
00001FFF000000
00001FFE000000
00001FFE000000
00001FFE000000
00001FFE000000
00001FFE000000
00001FFE000000
00001FFE000000
00001FFE000000
00001FFE000000
00001FFE000000
00001FFE000000
00001FFE000000
00001FFE000000
00001FFE000000
00003FFE000000
00003FFE000000
00003FFE000000
00003FFE000000
00003FFE000000
00003FFE000000
00003FFE000000
00003FFE000000
00003FFE000000
00003FFE000000
00003FFE000000
00003FFE000000
00003FFE000000
00003FFE000000
00003FFE000000
00003FFE000000
00003FFE000000
00003FFE000000
00003FFE000000
00003FFE000000
00003FFE000000
00003FFE000000
00003FFE000000
00003FFE000000
00003FFE000000
00003FFE000000
00003FFE000000
00003FFE000000
00003FFE000000
00003FFC000000
00003FFC000000
00001FFC000000
00000FF8000000
000001E0000000
ENDCHAR
STARTCHAR U
ENCODING 85
SWIDTH 692 0
DWIDTH 69 0
BBX 55 71 7 0
BITMAP
000000000007E0
1FE00000000FF8
3FF00000001FFC
7FF00000001FFC
7FF80000003FFC
7FF80000003FFC
7FF80000003FFC
7FF80000003FFC
7FF80000003FFC
7FF80000003FFC
7FF80000003FFC
7FF80000003FFC
7FF80000003FFC
7FF80000003FFC
FFF80000003FFC
FFF80000003FFC
FFF80000003FFC
FFF80000003FFC
FFF80000003FFC
FFF80000003FFE
FFF80000003FFE
FFF80000003FFE
FFF80000003FFE
FFF80000003FFE
FFF80000003FFE
FFF80000003FFE
FFF80000003FFE
FFF80000003FFE
FFF80000003FFE
FFF80000003FFE
FFF80000003FFE
FFF80000003FFE
FFF80000003FFE
FFF80000003FFE
FFF80000003FFE
FFF80000003FFE
FFF80000003FFE
FFF80000003FFE
FFF80000003FFE
FFF80000003FFE
FFF80000003FFE
FFF80000003FFE
FFF80000003FFE
FFF80000003FFE
FFF80000003FFE
FFF80000003FFE
FFF80000007FFE
FFF80000007FFE
FFF8000000FFFE
FFF8000000FFFE
FFF8000001FFFE
7FF8000001FFFE
7FFC000003FFFE
7FFC000007FFFE
7FFE00000FFFFE
3FFF00001FFFFE
3FFF80003FFFFE
3FFFC0007FFFFE
1FFFE001FFFFFE
1FFFFC0FFFFFFE
0FFFFFFFFFFFFE
0FFFFFFFFFFFFE
07FFFFFFFFDFFE
03FFFFFFFF9FFE
01FFFFFFFF1FFE
00FFFFFFFE1FFE
007FFFFFFC1FFE
003FFFFFF01FFE
000FFFFFE01FFC
0003FFFF000FFC
00003FF80007F8
ENDCHAR
STARTCHAR V
ENCODING 86
SWIDTH 656 0
DWIDTH 66 0
BBX 57 71 4 0
BITMAP
0FC000000000F800
3FE000000003FE00
7FF000000007FF00
7FF000000007FF80
FFF800000007FF80
FFF80000000FFF80
7FF80000000FFF80
7FF80000000FFF80
7FFC0000000FFF80
7FFC0000001FFF00
3FFC0000001FFF00
3FFE0000001FFF00
3FFE0000003FFF00
1FFE0000003FFE00
1FFF0000003FFE00
1FFF0000003FFE00
0FFF0000007FFC00
0FFF0000007FFC00
0FFF8000007FFC00
0FFF8000007FFC00
07FF800000FFF800
07FFC00000FFF800
07FFC00000FFF800
07FFC00000FFF000
03FFC00001FFF000
03FFE00001FFF000
03FFE00001FFF000
01FFE00001FFE000
01FFE00003FFE000
01FFF00003FFE000
00FFF00003FFE000
00FFF00003FFC000
00FFF80007FFC000
00FFF80007FFC000
007FF80007FF8000
007FF80007FF8000
007FFC000FFF8000
003FFC000FFF0000
003FFC000FFF0000
003FFE001FFF0000
003FFE001FFF0000
001FFE001FFE0000
001FFE001FFE0000
001FFF003FFE0000
000FFF003FFC0000
000FFF003FFC0000
000FFF803FFC0000
0007FF807FFC0000
0007FF807FF80000
0007FFC07FF80000
0003FFC0FFF80000
0003FFC0FFF00000
0003FFE1FFF00000
0001FFE1FFF00000
0001FFF3FFE00000
0001FFFFFFE00000
0000FFFFFFE00000
0000FFFFFFC00000
0000FFFFFFC00000
00007FFFFFC00000
00007FFFFF800000
00003FFFFF800000
00003FFFFF800000
00003FFFFF000000
00001FFFFF000000
00001FFFFE000000
00000FFFFE000000
000007FFFC000000
000003FFF8000000
000001FFE0000000
0000003F80000000
ENDCHAR
STARTCHAR W
ENCODING 87
SWIDTH 861 0
DWIDTH 86 0
BBX 76 70 5 0
BITMAP
1FC00000000000003F80
3FE00000000000007FC0
7FF0000000000000FFE0
FFF0000000000000FFF0
FFF0000000000000FFF0
FFF0000000000001FFF0
FFF8000000000001FFF0
FFF8000000000001FFF0
FFF8000000000001FFF0
7FFC000000000003FFE0
7FFC000000000003FFE0
7FFC000000000003FFE0
3FFC000000000003FFE0
3FFE000000000003FFC0
3FFE000000000007FFC0
3FFE000000000007FFC0
1FFE000000000007FFC0
1FFF000000000007FF80
1FFF000000000007FF80
1FFF00000000000FFF80
0FFF00000000000FFF80
0FFF80000000000FFF00
0FFF80000000000FFF00
07FF80000000000FFF00
07FF80000000001FFF00
07FFC0000000001FFE00
07FFC0000000001FFE00
03FFC0000F00001FFE00
03FFC0001F80001FFE00
03FFE0003FC0003FFE00
03FFE0003FE0003FFC00
01FFE0007FE0003FFC00
01FFE0007FF0003FFC00
01FFF000FFF0003FFC00
00FFF000FFF8007FF800
00FFF001FFF8007FF800
00FFF001FFFC007FF800
00FFF001FFFC007FF800
007FF803FFFE007FF800
007FF803FFFE00FFF000
007FF807FFFF00FFF000
007FF807FFFF00FFF000
003FFC07FFFF00FFF000
003FFC0FFFFF80FFF000
003FFC0FFFFF81FFE000
003FFC0FFFFFC1FFE000
001FFC1FFFFFC1FFE000
001FFE1FFFFFC1FFE000
001FFE3FFDFFE1FFC000
001FFE3FFCFFE3FFC000
000FFE3FF8FFF3FFC000
000FFF7FF87FF3FFC000
000FFF7FF07FFBFFC000
000FFFFFF07FFFFF8000
000FFFFFF03FFFFF8000
0007FFFFE03FFFFF8000
0007FFFFE01FFFFF8000
0007FFFFC01FFFFF8000
0007FFFFC00FFFFF0000
0003FFFFC00FFFFF0000
0003FFFF8007FFFF0000
0003FFFF8007FFFF0000
0003FFFF0003FFFF0000
0001FFFF0003FFFE0000
0001FFFE0001FFFE0000
0001FFFC0000FFFE0000
0000FFFC00007FFC0000
0000FFF800007FFC0000
00007FF000001FF80000
00001FC0000007E00000
ENDCHAR
STARTCHAR X
ENCODING 88
SWIDTH 677 0
DWIDTH 68 0
BBX 58 71 5 -1
BITMAP
0F8000000000F800
1FE000000001FE00
3FE000000001FF00
7FF000000003FF80
FFF800000007FF80
FFFC0000000FFFC0
FFFE0000000FFF80
7FFE0000001FFF80
7FFF0000003FFF80
3FFF8000007FFF00
1FFF8000007FFE00
1FFFC00000FFFC00
0FFFE00001FFFC00
07FFF00003FFF800
03FFF00003FFF000
03FFF80007FFE000
01FFFC000FFFE000
00FFFE001FFFC000
00FFFE001FFF8000
007FFF003FFF0000
003FFF807FFF0000
001FFF80FFFE0000
001FFFC1FFFC0000
000FFFE1FFF80000
0007FFF3FFF80000
0003FFF7FFF00000
0003FFFFFFE00000
0001FFFFFFC00000
0000FFFFFFC00000
00007FFFFF800000
00007FFFFF000000
00003FFFFE000000
00001FFFFE000000
00001FFFFC000000
00000FFFF8000000
000007FFF0000000
000007FFF0000000
00000FFFF8000000
00001FFFFC000000
00001FFFFE000000
00003FFFFE000000
00007FFFFF000000
0000FFFFFF800000
0001FFFFFFC00000
0001FFFFFFC00000
0003FFFFFFE00000
0007FFF7FFF00000
000FFFE3FFF80000
000FFFE1FFF80000
001FFFC1FFFC0000
003FFF80FFFE0000
007FFF007FFE0000
00FFFF003FFF0000
00FFFE003FFF8000
01FFFC001FFFC000
03FFF8000FFFC000
07FFF80007FFE000
07FFF00007FFF000
0FFFE00003FFF800
1FFFC00001FFF800
3FFFC00001FFFC00
7FFF800000FFFE00
7FFF0000007FFF00
7FFE0000003FFF00
7FFE0000003FFF00
7FFC0000001FFF00
7FF80000000FFF00
3FF000000007FE00
1FE000000007FE00
0FC000000003FC00
000000000000E000
ENDCHAR
STARTCHAR Y
ENCODING 89
SWIDTH 655 0
DWIDTH 66 0
BBX 54 70 6 0
BITMAP
0F800000000700
3FC00000001FF0
7FE00000003FF8
FFF00000003FFC
FFF00000007FFC
FFF80000007FFC
FFF8000000FFFC
FFFC000000FFFC
FFFC000001FFF8
7FFE000001FFF8
7FFE000003FFF0
3FFF000003FFF0
3FFF000007FFF0
1FFF800007FFE0
1FFF80000FFFE0
0FFFC0000FFFC0
0FFFC0001FFFC0
07FFE0001FFF80
07FFE0003FFF80
03FFF0003FFF00
03FFF8007FFF00
01FFF8007FFE00
01FFFC00FFFC00
00FFFC01FFFC00
00FFFE01FFF800
007FFF03FFF800
003FFF87FFF000
003FFFCFFFE000
001FFFFFFFE000
000FFFFFFFC000
0007FFFFFF8000
0003FFFFFF0000
0001FFFFFE0000
0000FFFFFC0000
00007FFFF80000
00003FFFF00000
00001FFFC00000
000007FF800000
000007FF800000
000007FF800000
000007FF800000
000007FF800000
000007FF800000
000007FF800000
000007FF800000
000007FF800000
000007FF800000
000007FF800000
000007FF800000
000007FF800000
000007FF800000
000007FF800000
000007FF800000
000007FF800000
000007FF800000
000007FF800000
000007FF800000
000007FF800000
000007FF800000
000007FF800000
000007FF800000
000007FF800000
000007FF800000
000007FF800000
000007FF800000
000007FF800000
000007FF800000
000003FF000000
000001FE000000
000000FC000000
ENDCHAR
STARTCHAR Z
ENCODING 90
SWIDTH 698 0
DWIDTH 70 0
BBX 62 69 4 2
BITMAP
03FC000000000000
07FFFC00001FFFC0
0FFFFFFFFFFFFFF0
0FFFFFFFFFFFFFF8
0FFFFFFFFFFFFFF8
1FFFFFFFFFFFFFFC
0FFFFFFFFFFFFFFC
0FFFFFFFFFFFFFFC
07FFFFFFFFFFFFFC
03FFFFFFFFFFFFFC
00FFFFFFFFFFFFF8
000FFFFFFFFFFFF8
000007FFFF87FFF0
00000000000FFFE0
00000000000FFFE0
00000000001FFFC0
00000000003FFF80
00000000007FFF00
0000000000FFFE00
0000000001FFFC00
0000000003FFF800
0000000007FFF800
000000000FFFF000
000000001FFFE000
000000003FFFC000
000000007FFF8000
00000000FFFF0000
00000001FFFE0000
00000003FFFC0000
00000007FFF80000
00000007FFF00000
0000000FFFE00000
0000001FFFC00000
0000003FFF800000
0000007FFF000000
000000FFFE000000
000001FFFC000000
000003FFF8000000
000007FFF0000000
00000FFFE0000000
00001FFFC0000000
00003FFF80000000
00007FFF00000000
0000FFFE00000000
0001FFFC00000000
0003FFF800000000
0007FFF000000000
000FFFE000000000
001FFFE000000000
003FFFC000000000
007FFF8000000000
00FFFF0000000000
00FFFE0000000000
01FFFC0000000000
03FFF80000000000
07FFF00000000000
0FFFE00000000000
1FFFC1FFFFFC0000
3FFFFFFFFFFFFC00
3FFFFFFFFFFFFF80
7FFFFFFFFFFFFFC0
7FFFFFFFFFFFFFE0
FFFFFFFFFFFFFFE0
FFFFFFFFFFFFFFE0
FFFFFFFFFFFFFFE0
FFFFFFFFFFFFFFE0
7FFFFFFFFFFFFFC0
3FFFFFFFFFFFFFC0
00200000001FFF00
ENDCHAR
STARTCHAR a
ENCODING 97
SWIDTH 617 0
DWIDTH 62 0
BBX 52 50 5 -1
BITMAP
0000FFFC01F000
0003FFFF07FC00
000FFFFF87FE00
003FFFFFCFFE00
007FFFFFEFFE00
01FFFFFFFFFE00
03FFFFFFFFFE00
03FFFFFFFFFC00
07FFFFFFFFFC00
0FFFF81FFFFC00
1FFFC007FFFC00
1FFF8001FFFC00
3FFF0000FFFC00
3FFE0000FFFC00
3FFE00007FFC00
7FFC00007FFC00
7FFC00007FFC00
7FF800003FF800
FFF800003FF800
FFF800003FF800
FFF000003FF800
FFF000003FF800
FFF000003FF800
FFF000003FF800
FFF000003FF800
FFF000003FF800
FFF000003FF800
FFF000003FF800
FFF000003FF800
FFF000003FF800
FFF000007FF800
FFF800007FF800
FFF800007FF800
FFF800007FF800
7FFC00007FF800
7FFC00007FF800
7FFE0000FFFC00
3FFF0001FFFC00
3FFF8003FFFC00
1FFFC00FFFFF80
1FFFFFFFFFFFE0
0FFFFFFFFFFFF0
07FFFFFFFFFFF0
07FFFFFFFFFFF0
03FFFFFFFBFFF0
00FFFFFFF1FFF0
007FFFFFE0FFF0
001FFFFFC07FE0
0007FFFF000FC0
00007FF0000000
ENDCHAR
STARTCHAR b
ENCODING 98
SWIDTH 636 0
DWIDTH 64 0
BBX 56 88 3 0
BITMAP
01F00000000000
07FC0000000000
0FFE0000000000
1FFE0000000000
1FFF0000000000
1FFF0000000000
1FFF0000000000
1FFF0000000000
1FFF0000000000
1FFF0000000000
1FFF0000000000
1FFF0000000000
1FFF0000000000
1FFF0000000000
0FFF0000000000
0FFF0000000000
0FFF0000000000
0FFF0000000000
0FFF0000000000
0FFF0000000000
0FFF0000000000
0FFF0000000000
0FFF0000000000
0FFF0000000000
0FFF0000000000
0FFF0000000000
0FFF0000000000
0FFF0000000000
0FFF0000000000
0FFF0000000000
0FFF0000000000
0FFF0000000000
0FFF0000000000
0FFF0000000000
0FFF0000000000
0FFF0000000000
0FFF007FF00000
0FFF03FFFF0000
0FFF0FFFFFC000
0FFF3FFFFFF000
0FFF7FFFFFFC00
0FFFFFFFFFFE00
0FFFFFFFFFFF00
0FFFFFFFFFFF80
0FFFFFFFFFFFC0
0FFFFFFFFFFFE0
0FFFFF001FFFE0
0FFFFC0007FFF0
0FFFF00003FFF8
0FFFE00000FFF8
0FFFC00000FFFC
0FFF8000007FFC
0FFF8000003FFC
0FFF8000003FFE
0FFF8000001FFE
0FFF8000001FFE
0FFF8000001FFE
0FFF8000001FFF
0FFF8000001FFF
0FFF8000000FFF
0FFF8000000FFF
0FFF8000000FFF
0FFF8000000FFF
0FFF8000000FFF
0FFF8000000FFF
0FFF8000001FFF
0FFF8000001FFF
0FFF8000001FFE
0FFF8000001FFE
0FFF8000003FFE
0FFF8000003FFE
0FFF8000007FFC
0FFFC000007FFC
0FFFE00000FFFC
0FFFF00001FFF8
0FFFF80003FFF8
1FFFFC0007FFF0
1FFFFF801FFFF0
7FFFFFFFFFFFE0
7FFFFFFFFFFFC0
FFFFFFFFFFFF80
FFFBFFFFFFFF00
FFF9FFFFFFFE00
FFF0FFFFFFFC00
7FE03FFFFFF000
3F800FFFFFC000
1F0003FFFE0000
0000003FF00000
ENDCHAR
STARTCHAR c
ENCODING 99
SWIDTH 595 0
DWIDTH 60 0
BBX 51 52 4 0
BITMAP
000007FF000000
00007FFFF00000
0001FFFFFC0000
0007FFFFFF0000
000FFFFFFFC000
003FFFFFFFE000
007FFFFFFFF000
00FFFFFFFFF800
01FFFFFFFFFC00
03FFFFFFFFFE00
03FFFC00FFFE00
07FFF0003FFF00
0FFFE0001FFF80
0FFFC0000FFF80
1FFF800007FFC0
1FFF000003FFC0
3FFF000001FFC0
3FFE000001FFC0
3FFC000000FFC0
7FFC0000007F80
7FFC0000003E00
7FF80000000000
7FF80000000000
7FF80000000000
7FF80000000000
7FF80000000000
FFF80000000000
FFF80000001F00
FFF80000003FC0
7FF80000007FE0
7FF8000000FFE0
7FF8000000FFE0
7FF8000000FFE0
7FFC000000FFE0
7FFC000000FFE0
3FFC000001FFE0
3FFE000001FFE0
3FFF000003FFC0
1FFF000007FFC0
1FFF80000FFFC0
0FFFE0001FFF80
0FFFF8007FFF80
07FFFFFFFFFF00
03FFFFFFFFFE00
01FFFFFFFFFE00
00FFFFFFFFFC00
007FFFFFFFF000
003FFFFFFFE000
000FFFFFFF8000
0003FFFFFF0000
0000FFFFF80000
00000FFF800000
ENDCHAR
STARTCHAR d
ENCODING 100
SWIDTH 633 0
DWIDTH 63 0
BBX 55 87 5 -1
BITMAP
00000000001FE0
00000000003FF0
00000000007FF8
00000000007FF8
00000000007FF8
00000000007FF8
00000000007FF8
00000000007FF8
00000000007FF8
00000000007FF8
0000000000FFF8
0000000000FFF8
0000000000FFF0
0000000000FFF0
0000000000FFF0
0000000000FFF0
0000000000FFF0
0000000000FFF0
0000000000FFF0
0000000000FFF0
0000000000FFF0
0000000000FFF0
0000000000FFF0
0000000000FFF0
0000000000FFF0
0000000000FFF0
0000000000FFF0
0000000000FFF0
0000000000FFF0
0000000000FFF0
0000000000FFF0
0000000000FFF0
0000000000FFF0
0000000000FFF0
00000FFE01FFF0
0000FFFFE1FFF0
0007FFFFF9FFF0
001FFFFFFFFFF0
003FFFFFFFFFF0
00FFFFFFFFFFF0
01FFFFFFFFFFE0
03FFFFFFFFFFE0
07FFFFFFFFFFE0
07FFFFFFFFFFE0
0FFFF800FFFFE0
1FFFE0003FFFE0
1FFF80000FFFE0
3FFF000007FFE0
3FFE000001FFE0
7FFE000001FFE0
7FFC000001FFE0
7FF8000001FFE0
FFF8000001FFE0
FFF8000001FFE0
FFF0000001FFE0
FFF0000001FFE0
FFF0000001FFE0
FFF0000001FFE0
FFF0000001FFE0
FFF0000001FFE0
FFF0000001FFE0
FFF0000001FFE0
FFF0000001FFE0
FFF0000001FFE0
FFF0000001FFE0
FFF0000001FFE0
FFF8000001FFE0
FFF8000001FFE0
FFF8000003FFE0
7FFC000003FFE0
7FFC000003FFE0
7FFE000007FFE0
3FFF00000FFFF0
3FFF80001FFFF0
1FFFC0003FFFF0
1FFFE000FFFFF0
0FFFFC03FFFFF8
07FFFFFFFFFFF8
03FFFFFFFFFFFC
03FFFFFFFFFFFE
01FFFFFFFF7FFE
007FFFFFFE7FFE
003FFFFFFC3FFE
000FFFFFF81FFE
0003FFFFE00FFC
0000FFFF8007F8
00000FFC0003E0
ENDCHAR
STARTCHAR e
ENCODING 101
SWIDTH 604 0
DWIDTH 60 0
BBX 51 53 5 -1
BITMAP
00000FFF000000
00007FFFF00000
0003FFFFFC0000
000FFFFFFF0000
001FFFFFFFC000
007FFFFFFFE000
00FFFFFFFFF000
01FFFFFFFFF800
03FFFFFFFFFC00
07FFFE03FFFE00
0FFFF0007FFE00
0FFFC0001FFF00
1FFF000007FF00
1FFE000003FF80
3FFC000001FF80
3FF8000001FFC0
7FF0000000FFC0
7FF0000000FFC0
7FE0000000FFC0
FFE0000000FFC0
FFC0000000FFC0
FFC0000000FFC0
FFFFFFFFFFFFE0
FFFFFFFFFFFFC0
FFFFFFFFFFFFC0
FFFFFFFFFFFFC0
FFFFFFFFFFFFC0
FFFFFFFFFFFFC0
FFFFFFFFFFFF80
FFFFFFFFFFFC00
FFC00000000000
FFC00000000000
FFE00000000000
FFE00000000000
7FE00000000000
7FF00000003000
7FF8000000FC00
3FF8000001FE00
3FFC000003FF00
3FFE000007FF00
1FFF80000FFF00
1FFFC0003FFF00
0FFFF800FFFF00
07FFFFFFFFFE00
03FFFFFFFFFC00
01FFFFFFFFFC00
00FFFFFFFFF800
007FFFFFFFF000
003FFFFFFFC000
000FFFFFFF8000
0003FFFFFE0000
0000FFFFF80000
000007FF800000
ENDCHAR
STARTCHAR f
ENCODING 102
SWIDTH 415 0
DWIDTH 42 0
BBX 41 74 2 0
BITMAP
000007FC0000
00003FFF8000
0000FFFFE000
0001FFFFF000
0003FFFFF800
0007FFFFFC00
000FFFFFFE00
001FFFFFFE00
001FFFFFFF00
003FFFFFFF00
003FFE1FFF00
003FFC0FFF00
007FFC0FFF80
007FF807FF80
007FF807FF80
007FF807FF80
007FF807FF80
007FF807FF80
007FF807FF00
00FFF807FF00
00FFF803FE00
00FFF800FC00
00FFF8000000
007FF8000000
007FF8000000
007FF8000000
007FF8000000
007FF8000000
007FF8000000
007FF8000000
007FF8000000
007FF8000000
3FFFFFF80000
7FFFFFFC0000
FFFFFFFE0000
FFFFFFFE0000
FFFFFFFE0000
FFFFFFFE0000
FFFFFFFE0000
7FFFFFFC0000
7FFFFFF80000
0FFFF8000000
007FF8000000
007FF8000000
007FF8000000
007FF8000000
007FF8000000
007FF8000000
007FF8000000
007FF8000000
007FF8000000
007FF8000000
007FF8000000
007FF8000000
007FF8000000
007FF8000000
007FF8000000
007FF8000000
007FF8000000
007FF8000000
007FF8000000
007FF8000000
007FF8000000
007FF8000000
007FF8000000
007FF8000000
007FF8000000
007FF8000000
007FF8000000
007FF8000000
003FF8000000
003FF8000000
001FF0000000
000FC0000000
ENDCHAR
STARTCHAR g
ENCODING 103
SWIDTH 591 0
DWIDTH 59 0
BBX 51 78 4 -25
BITMAP
0000000001F000
0000000003FC00
000007E007FE00
0000FFFF07FF00
0003FFFFCFFF00
000FFFFFEFFF00
003FFFFFFFFE00
007FFFFFFFFE00
00FFFFFFFFFE00
01FFFFFFFFFE00
03FFFFFFFFFC00
07FFFFFFFFFC00
07FFFC07FFFC00
0FFFF001FFFC00
1FFFC0007FFC00
1FFF80003FFC00
3FFF00003FFE00
3FFE00003FFE00
3FFE00001FFE00
7FFC00001FFE00
7FFC00001FFE00
7FF800001FFE00
7FF800001FFE00
FFF800001FFF00
FFF800000FFF00
FFF000000FFF00
FFF000000FFF00
FFF000000FFF00
FFF000000FFF00
FFF000000FFF00
FFF000000FFF80
FFF800000FFF80
7FF8000007FF80
7FF8000007FF80
7FF8000007FF80
7FFC000007FF80
7FFC000007FF80
3FFE000007FFC0
3FFE00000FFFC0
1FFF00001FFFC0
1FFF80003FFFC0
0FFFC0007FFFC0
0FFFF003FFFFC0
07FFFFFFFFFFC0
03FFFFFFFFFFC0
01FFFFFFFFFFE0
00FFFFFFFFFFE0
007FFFFFFFFFE0
003FFFFFFDFFE0
001FFFFFF9FFE0
0007FFFFE1FFE0
0000FFFF81FFE0
00001FF801FFE0
0000000001FFE0
0000000001FFE0
0000000001FFE0
0000000001FFE0
01F8000003FFE0
03FC000003FFC0
07FE000003FFC0
07FE000003FFC0
07FE000007FFC0
07FF000007FF80
07FF00000FFF80
07FF80001FFF80
07FFC0003FFF00
03FFE0007FFE00
03FFF803FFFE00
01FFFFFFFFFC00
01FFFFFFFFF800
00FFFFFFFFF800
007FFFFFFFF000
003FFFFFFFC000
001FFFFFFF8000
0007FFFFFF0000
0001FFFFFC0000
00007FFFE00000
000007FF000000
ENDCHAR
STARTCHAR h
ENCODING 104
SWIDTH 575 0
DWIDTH 58 0
BBX 45 78 8 0
BITMAP
07F000000000
0FF800000000
1FFC00000000
1FFC00000000
3FFC00000000
3FFC00000000
3FFC00000000
3FFC00000000
3FFC00000000
3FFC00000000
3FFC00000000
3FFC00000000
3FFC00000000
3FFC00000000
3FF800000000
3FF800000000
3FF800000000
3FF800000000
3FF800000000
3FF800000000
7FF800000000
7FF800000000
7FF800000000
7FF800000000
7FF800000000
7FF800000000
7FF8007C0000
7FF80FFFC000
7FF87FFFF000
7FF8FFFFF800
7FFBFFFFFC00
7FFFFFFFFE00
7FFFFFFFFF00
7FFFFFFFFF80
7FFFFFFFFF80
7FFFFFFFFFC0
7FFFF80FFFC0
7FFFE007FFC0
7FFFC003FFE0
7FFF8001FFE0
7FFF0001FFE0
7FFE0000FFE0
7FFE0000FFF0
7FFC0000FFF0
7FFC0000FFF0
7FF80000FFF0
7FF80000FFF0
7FF800007FF0
7FF800007FF0
7FF800007FF8
7FF800007FF8
7FF800007FF8
7FF800007FF8
7FF800007FF8
FFF800007FF8
FFF800007FF8
FFF800007FF8
FFF800007FF8
FFF800007FF8
FFF800007FF8
FFF800007FF8
FFF800007FF8
FFF800007FF8
FFF800007FF8
FFF800007FF8
FFF800007FF8
FFF800007FF8
FFF800007FF8
FFF800007FF8
FFF800007FF8
FFF800007FF8
FFF800007FF8
FFF800007FF8
FFF800007FF8
FFF000003FF8
7FF000003FF8
3FE000001FF0
0F80000007C0
ENDCHAR
STARTCHAR i
ENCODING 105
SWIDTH 327 0
DWIDTH 33 0
BBX 16 69 9 1
BITMAP
07E0
1FF8
3FFC
7FFE
FFFE
FFFF
FFFF
FFFF
FFFF
FFFF
FFFF
FFFE
7FFE
3FFC
1FF8
07E0
0000
0000
0000
0000
0380
1FF0
3FF8
7FF8
7FF8
7FFC
7FF8
7FF8
7FF8
7FF8
7FF8
7FF8
7FF8
7FF8
7FF8
7FF8
7FF8
7FF8
7FF8
7FF8
7FF8
7FF8
7FF8
7FF8
7FF8
7FF8
7FF8
7FF8
7FF8
7FF8
7FF8
7FF8
7FF8
7FF8
FFF8
FFF8
FFF8
FFF8
FFF8
FFF8
FFF8
FFF8
FFF8
FFF8
FFF8
FFF0
7FF0
3FE0
1FC0
ENDCHAR
STARTCHAR j
ENCODING 106
SWIDTH 362 0
DWIDTH 36 0
BBX 37 94 -8 -24
BITMAP
0000000C00
0000007F80
000001FFE0
000003FFF0
000003FFF0
000007FFF8
000007FFF8
000007FFF8
000007FFF8
000007FFF8
000007FFF8
000007FFF0
000003FFF0
000001FFE0
000000FFC0
0000003F00
0000000000
0000000000
0000000000
0000000000
0000003E00
000000FF80
000001FFC0
000003FFC0
000003FFC0
000003FFC0
000003FFC0
000003FFC0
000003FFC0
000003FFC0
000003FFC0
000003FFC0
000003FFC0
000003FFC0
000003FFC0
000003FFC0
000003FFC0
000003FFC0
000003FFC0
000003FFC0
000003FFC0
000003FFC0
000003FFC0
000003FFC0
000003FFC0
000003FFC0
000003FFC0
000003FFC0
000003FFC0
000003FFC0
000003FFC0
000003FFC0
000003FFC0
000003FFC0
000003FFC0
000003FFC0
000003FFC0
000003FFC0
000003FFC0
000003FFC0
000003FFC0
000003FFC0
000003FFC0
000003FFC0
000003FFC0
000003FFC0
000003FFC0
000003FFC0
000003FFC0
000003FFC0
000003FFC0
000003FFC0
000003FFC0
0E0003FFC0
7FC003FF80
7FE007FF80
FFE007FF80
FFE007FF80
FFE007FF80
FFF007FF80
FFF00FFF00
FFF00FFF00
FFF01FFF00
7FF83FFE00
7FFFFFFE00
7FFFFFFC00
3FFFFFFC00
3FFFFFF800
1FFFFFF000
0FFFFFF000
07FFFFE000
01FFFF8000
007FFE0000
000FF80000
ENDCHAR
STARTCHAR k
ENCODING 107
SWIDTH 536 0
DWIDTH 54 0
BBX 43 76 7 -1
BITMAP
1F8000000000
3FE000000000
7FE000000000
FFF000000000
FFF000000000
FFF000000000
FFF000000000
FFF000000000
FFF000000000
FFF000000000
FFF000000000
FFF000000000
FFF000000000
FFF000000000
FFF000000000
FFF000000000
FFF000000000
FFF000000000
FFF000000000
FFF000000000
FFF000000000
FFF000000F00
FFF000003F80
FFF00000FFC0
FFF00003FFC0
FFF00007FFE0
FFF0001FFFE0
FFF0003FFFE0
FFF000FFFFE0
FFF003FFFFC0
FFF007FFFF80
FFF01FFFFE00
FFF07FFFF800
FFF0FFFFF000
FFF3FFFFC000
FFFFFFFF0000
FFFFFFFE0000
FFFFFFF80000
FFFFFFE00000
FFFFFFC00000
FFFFFF000000
FFFFFC000000
FFFFF8000000
FFFFE0000000
FFFF80000000
FFFF00000000
FFFC00000000
FFFE00000000
FFFF80000000
FFFFC0000000
FFFFE0000000
FFFFF8000000
FFFFFC000000
FFFFFF000000
FFFFFF800000
FFFFFFC00000
FFFFFFF00000
FFFFFFF80000
FFF7FFFC0000
FFF1FFFF0000
FFF0FFFF8000
FFF07FFFC000
FFF03FFFF000
FFF00FFFF800
FFF007FFFC00
FFF003FFFF00
FFF001FFFF80
FFF0007FFFC0
FFF0003FFFC0
FFF0001FFFC0
FFF0000FFFC0
FFF00003FFC0
FFF00001FF80
7FE00000FF00
3FC000003E00
070000000000
ENDCHAR
STARTCHAR l
ENCODING 108
SWIDTH 264 0
DWIDTH 26 0
BBX 13 78 6 1
BITMAP
0FC0
3FE0
7FF0
7FF8
7FF8
FFF8
FFF8
7FF8
7FF8
7FF8
7FF8
7FF8
7FF8
7FF8
7FF8
7FF8
7FF8
7FF8
7FF8
7FF8
7FF8
7FF8
7FF8
7FF8
7FF8
7FF8
7FF8
7FF8
7FF8
7FF8
7FF8
7FF8
7FF8
7FF8
7FF8
7FF8
7FF8
7FF8
7FF8
7FF8
7FF8
7FF8
7FF8
7FF8
7FF8
7FF8
7FF8
7FF8
7FF8
7FF8
7FF8
7FF8
7FF8
7FF8
7FF8
7FF8
7FF8
7FF8
7FF8
7FF8
7FF8
7FF8
7FF8
7FF8
7FF8
7FF8
7FF8
7FF8
7FF8
7FF8
7FF8
7FF8
7FF8
7FF8
7FF8
3FF8
3FF0
0FE0
ENDCHAR
STARTCHAR m
ENCODING 109
SWIDTH 795 0
DWIDTH 80 0
BBX 69 50 5 0
BITMAP
000003E00001FF0000
1E001FFE000FFFE000
3F807FFF003FFFF800
7FC0FFFF807FFFFC00
7FC1FFFFC0FFFFFE00
FFE3FFFFE1FFFFFF00
FFE7FFFFF3FFFFFF80
7FE7FFFFF7FFFFFF80
3FFFFFFFFFFFFFFFC0
1FFFFFFFFFFF0FFFC0
1FFFF81FFFFE03FFE0
1FFFF00FFFFC01FFE0
1FFFE007FFF801FFE0
1FFFC007FFF800FFE0
1FFFC003FFF000FFF0
1FFF8003FFF000FFF0
1FFF8003FFF000FFF0
1FFF8003FFF000FFF0
1FFF0001FFE000FFF0
1FFF0001FFE0007FF0
0FFF0001FFE0007FF0
0FFF0001FFE0007FF8
0FFF0001FFE0007FF8
0FFE0001FFE0007FF8
0FFE0001FFE0007FF8
0FFE0001FFE0007FF8
0FFE0001FFE0007FF8
0FFE0001FFE0007FF8
0FFE0001FFE0007FF8
0FFE0001FFE0007FF8
0FFE0001FFE0007FF8
0FFE0001FFE0007FF8
0FFE0001FFE0007FF8
0FFE0001FFE0007FF8
0FFE0001FFE0007FF8
0FFE0001FFE0007FF8
0FFE0001FFE0007FF8
0FFE0001FFE0007FF8
0FFE0001FFE0007FF8
0FFE0001FFE0007FF8
0FFE0001FFE0007FF8
0FFE0001FFE0007FF8
0FFE0001FFE0007FF8
0FFE0001FFE0007FF8
0FFE0001FFE0007FF8
0FFE0001FFE0007FF8
0FFE0001FFE0007FF0
0FFE0000FFC0007FF0
07FC0000FFC0003FE0
03F000003F00001FC0
ENDCHAR
STARTCHAR n
ENCODING 110
SWIDTH 567 0
DWIDTH 57 0
BBX 46 51 5 0
BITMAP
0F0001FF8000
1F800FFFF000
7FC01FFFFC00
7FE07FFFFE00
FFE0FFFFFF00
FFF1FFFFFF80
FFF3FFFFFFC0
7FFBFFFFFFC0
3FFFFFFFFFE0
3FFFFFFFFFF0
1FFFFE03FFF0
1FFFFC01FFF0
1FFFF800FFF8
1FFFF000FFF8
1FFFE0007FF8
1FFFE0007FF8
1FFFC0007FFC
1FFFC0007FFC
1FFFC0003FFC
1FFFC0003FFC
0FFF80003FFC
0FFF80003FFC
0FFF80003FFC
0FFF80003FFC
0FFF80003FFC
0FFF00003FFC
0FFF00003FFC
0FFF00003FFC
0FFF00003FFC
0FFF00003FFC
0FFF00003FFC
0FFF00003FFC
0FFF00003FFC
0FFF00003FFC
0FFF00003FFC
0FFF00003FFC
0FFF00003FFC
0FFF00003FFC
0FFF00003FFC
0FFF00003FFC
0FFF00003FFC
0FFF00003FFC
0FFF00003FFC
0FFF00003FFC
0FFF00003FFC
0FFF00003FFC
0FFF00003FFC
0FFF00003FFC
0FFF00003FFC
07FE00001FF8
01FC000007E0
ENDCHAR
STARTCHAR o
ENCODING 111
SWIDTH 602 0
DWIDTH 60 0
BBX 54 52 3 0
BITMAP
000007FF000000
00007FFFF00000
0003FFFFFE0000
000FFFFFFF8000
001FFFFFFFE000
007FFFFFFFF000
00FFFFFFFFF800
01FFFFFFFFFC00
03FFFFFFFFFE00
03FFFFFFFFFF00
07FFFC007FFF80
0FFFF0001FFFC0
0FFFC0000FFFC0
1FFF800007FFE0
1FFF000003FFE0
3FFE000001FFF0
3FFE000001FFF0
7FFC000000FFF8
7FFC000000FFF8
7FF80000007FF8
7FF80000007FF8
7FF80000007FFC
FFF80000007FFC
FFF80000003FFC
FFF00000003FFC
FFF00000003FFC
FFF00000003FFC
FFF00000003FFC
FFF00000003FFC
FFF80000003FFC
FFF80000003FFC
FFF80000007FFC
7FF80000007FFC
7FF80000007FF8
7FFC0000007FF8
7FFC000000FFF8
3FFE000000FFF8
3FFE000001FFF0
3FFF000003FFF0
1FFF800007FFF0
1FFFE0001FFFE0
0FFFF8007FFFC0
07FFFFFFFFFFC0
07FFFFFFFFFF80
03FFFFFFFFFF00
00FFFFFFFFFE00
007FFFFFFFFC00
003FFFFFFFF000
000FFFFFFFE000
0003FFFFFF8000
00007FFFFC0000
000007FFC00000
ENDCHAR
STARTCHAR p
ENCODING 112
SWIDTH 626 0
DWIDTH 63 0
BBX 55 74 3 -22
BITMAP
0000007FF00000
030007FFFF0000
1FC01FFFFFC000
3FC03FFFFFF000
7FE0FFFFFFF800
FFF1FFFFFFFE00
FFF3FFFFFFFF00
FFFFFFFFFFFF80
FFFFFFFFFFFFC0
7FFFFFFFFFFFC0
3FFFFF803FFFE0
1FFFFE0007FFF0
1FFFF80003FFF0
1FFFF00001FFF8
0FFFE00000FFF8
0FFFC000007FFC
0FFF8000007FFC
0FFF8000003FFC
0FFF0000003FFC
0FFF0000003FFE
0FFF0000001FFE
0FFF0000001FFE
0FFF0000001FFE
0FFF0000001FFE
0FFF0000001FFE
0FFF0000001FFE
0FFF0000001FFE
0FFF0000001FFE
0FFF0000001FFE
0FFF0000001FFE
0FFF0000001FFE
0FFF0000003FFE
0FFF0000003FFE
0FFF0000003FFE
0FFF0000007FFC
0FFF0000007FFC
0FFF000000FFFC
1FFF000000FFF8
1FFF000001FFF8
1FFFC00003FFF0
1FFFF0000FFFF0
1FFFFE003FFFE0
1FFFFFFFFFFFE0
1FFFFFFFFFFFC0
1FFFFFFFFFFF80
1FFFFFFFFFFF00
1FFFFFFFFFFE00
1FFFFFFFFFFC00
1FFFFFFFFFF000
1FFE7FFFFFC000
1FFE0FFFFF0000
1FFE00FFF00000
1FFE0000000000
1FFE0000000000
1FFE0000000000
1FFE0000000000
1FFE0000000000
1FFE0000000000
1FFE0000000000
1FFE0000000000
1FFE0000000000
1FFE0000000000
1FFE0000000000
1FFE0000000000
1FFE0000000000
1FFE0000000000
1FFE0000000000
1FFE0000000000
1FFE0000000000
1FFE0000000000
1FFE0000000000
1FFC0000000000
0FF80000000000
03F00000000000
ENDCHAR
STARTCHAR q
ENCODING 113
SWIDTH 644 0
DWIDTH 64 0
BBX 56 76 4 -24
BITMAP
00000FFE000000
00007FFFE00000
0003FFFFF800F8
000FFFFFFC01FC
001FFFFFFF03FE
007FFFFFFF83FF
00FFFFFFFFC7FF
01FFFFFFFFEFFF
03FFFFFFFFEFFF
07FFFFFFFFFFFE
07FFF801FFFFFE
0FFFE0007FFFFC
1FFFC0001FFFFC
1FFF80000FFFF8
3FFF000007FFF0
3FFE000007FFF0
3FFC000003FFE0
7FFC000001FFE0
7FFC000001FFE0
7FF8000001FFE0
FFF8000000FFE0
FFF8000000FFE0
FFF0000000FFE0
FFF0000000FFE0
FFF0000000FFE0
FFF0000001FFE0
FFF0000001FFE0
FFF0000001FFE0
FFF0000001FFE0
FFF0000001FFE0
FFF0000001FFE0
FFF8000001FFE0
FFF8000001FFE0
7FF8000001FFE0
7FF8000001FFE0
7FFC000001FFE0
7FFC000001FFE0
3FFE000001FFE0
3FFF000003FFE0
1FFF800007FFE0
1FFFC0000FFFE0
0FFFE0003FFFE0
0FFFF800FFFFE0
07FFFFFFFFFFE0
03FFFFFFFFFFE0
01FFFFFFFFFFE0
00FFFFFFFFFFE0
007FFFFFFFFFE0
003FFFFFFFFFE0
000FFFFFFDFFE0
0003FFFFF9FFE0
00007FFFE1FFE0
00000FFE01FFE0
0000000001FFE0
0000000001FFE0
0000000001FFE0
0000000001FFE0
0000000001FFE0
0000000001FFE0
0000000001FFE0
0000000001FFE0
0000000001FFE0
0000000001FFE0
0000000001FFE0
0000000001FFE0
0000000001FFE0
0000000001FFE0
0000000001FFE0
0000000001FFE0
0000000001FFE0
0000000001FFE0
0000000001FFE0
0000000001FFE0
0000000001FFC0
0000000000FFC0
00000000007F00
ENDCHAR
STARTCHAR r
ENCODING 114
SWIDTH 515 0
DWIDTH 52 0
BBX 41 54 6 -1
BITMAP
3F8000000000
7FC001FE0000
7FE00FFF8000
FFE03FFFE000
FFE07FFFF000
FFE0FFFFF800
FFE1FFFFFC00
7FE3FFFFFE00
7FE3FFFFFE00
7FE7FFFFFF00
7FE7FF8FFF00
7FFFFE03FF80
7FFFFC03FF80
7FFFF801FF80
7FFFF001FF80
7FFFE001FF80
7FFFE001FF80
7FFFC001FF80
3FFFC003FF80
3FFF8007FF80
3FFF801FFF00
3FFF81FFFF00
3FFF03FFFF00
3FFF03FFFE00
3FFF03FFFC00
3FFE03FFF800
3FFE03FFF000
3FFE03FFC000
3FFE00FE0000
3FFE00000000
3FFE00000000
3FFE00000000
3FFE00000000
3FFC00000000
3FFC00000000
3FFC00000000
3FFC00000000
3FFC00000000
3FFC00000000
3FFC00000000
3FFC00000000
3FFC00000000
3FFC00000000
3FFC00000000
3FFC00000000
3FFC00000000
3FFC00000000
3FFC00000000
3FFC00000000
3FFC00000000
3FFC00000000
1FF800000000
1FF800000000
07E000000000
ENDCHAR
STARTCHAR s
ENCODING 115
SWIDTH 498 0
DWIDTH 50 0
BBX 40 53 5 -1
BITMAP
0001FF8000
000FFFF800
007FFFFE00
00FFFFFF00
03FFFFFFC0
07FFFFFFE0
0FFFFFFFF0
1FFFFFFFF0
1FFFFFFFF8
3FFFFFFFFC
3FFF80FFFC
7FFE003FFC
7FFC001FFC
7FF8001FFE
7FF8000FFE
7FF8000FFE
7FF8000FFE
7FFC0007FC
7FFE0007FC
3FFF8003F0
3FFFE00000
3FFFF80000
1FFFFF0000
0FFFFFE000
07FFFFFC00
03FFFFFF00
01FFFFFFC0
007FFFFFE0
001FFFFFF0
0007FFFFF8
0000FFFFFC
00001FFFFC
000007FFFE
000000FFFE
1F00007FFE
7F80001FFF
FFC0001FFF
FFC0001FFF
FFE0001FFF
FFF0001FFF
FFF8001FFE
FFFE003FFE
7FFF00FFFE
7FFFFFFFFE
3FFFFFFFFC
1FFFFFFFF8
0FFFFFFFF8
07FFFFFFF0
03FFFFFFC0
01FFFFFF80
007FFFFE00
001FFFF800
0001FF8000
ENDCHAR
STARTCHAR t
ENCODING 116
SWIDTH 443 0
DWIDTH 44 0
BBX 38 67 3 0
BITMAP
0007F80000
000FFC0000
000FFE0000
001FFE0000
001FFE0000
001FFE0000
001FFE0000
003FFE0000
003FFC0000
003FFC0000
003FFC0000
003FFC0000
003FFC0000
003FFC0000
007FFC0000
007FFC0000
007FF80000
007FF80000
007FF80000
007FF80000
3FFFF80000
FFFFFFF800
FFFFFFFE00
FFFFFFFE00
FFFFFFFE00
FFFFFFFE00
FFFFFFFE00
FFFFFFFE00
7FFFFFFE00
03FFFFF800
00FFF00000
00FFF00000
00FFF00000
00FFF00000
00FFF00000
00FFF00000
00FFF00000
00FFF00000
00FFF00000
00FFF00000
00FFF00000
00FFF00000
00FFF00000
00FFF00000
00FFF00000
00FFF00000
00FFF00000
00FFF00000
00FFF003E0
00FFF00FF8
007FF00FF8
007FF80FF8
007FF81FFC
007FF81FFC
007FF81FFC
003FFC1FF8
003FFC3FF8
003FFFFFF8
001FFFFFF8
001FFFFFF0
000FFFFFF0
000FFFFFE0
0007FFFFC0
0003FFFF80
0001FFFF00
00007FFC00
00001FF000
ENDCHAR
STARTCHAR u
ENCODING 117
SWIDTH 564 0
DWIDTH 56 0
BBX 44 51 6 0
BITMAP
00000000FC00
3FC00001FF00
7FE00003FF80
FFF00007FF80
FFF00007FFC0
FFF00007FFC0
FFF00007FFC0
FFF00007FFC0
FFF00007FFC0
FFF00007FFC0
FFF00007FFC0
FFF00007FFC0
FFF00007FFC0
FFF00007FFC0
FFF00007FFC0
FFF00007FFC0
FFF00007FFC0
FFF00007FFC0
FFF00007FFC0
FFF00007FFC0
FFF00007FFC0
FFF00007FFC0
FFF00007FFC0
FFF00007FFC0
FFF00007FFC0
FFF00007FFC0
FFF00007FFC0
FFF00007FFC0
FFF00007FFC0
FFF00007FFC0
FFF00007FFC0
FFF00007FFC0
FFF8000FFFC0
FFF8000FFFC0
7FF8000FFFC0
7FF8000FFFC0
7FF8001FFFC0
7FFC001FFFC0
3FFC003FFFC0
3FFE007FFFC0
3FFF00FFFFC0
1FFFFFFFFFC0
1FFFFFFFFFE0
0FFFFFFFFFE0
0FFFFFFFFFF0
07FFFFFE7FF0
03FFFFFC7FF0
01FFFFF83FF0
007FFFF01FF0
001FFFC00FE0
0003FE000780
ENDCHAR
STARTCHAR v
ENCODING 118
SWIDTH 538 0
DWIDTH 54 0
BBX 45 51 4 0
BITMAP
0000000007C0
1FC000001FF0
7FE000003FF8
7FF000003FF8
FFF000007FF8
FFF800007FF8
FFF800007FF8
FFF800007FF8
FFF800007FF8
7FF800007FF8
7FF80000FFF8
7FF80000FFF8
7FFC0000FFF0
7FFC0000FFF0
3FFC0000FFF0
3FFC0001FFF0
3FFE0001FFE0
3FFE0001FFE0
1FFE0003FFE0
1FFE0003FFE0
1FFE0003FFC0
1FFF0003FFC0
0FFF0007FFC0
0FFF0007FF80
0FFF8007FF80
07FF8007FF80
07FF800FFF00
07FFC00FFF00
03FFC01FFF00
03FFC01FFE00
01FFE01FFE00
01FFE03FFC00
01FFE03FFC00
00FFF07FFC00
00FFF07FF800
00FFF8FFF800
007FF8FFF000
007FFDFFF000
003FFFFFE000
003FFFFFE000
001FFFFFC000
001FFFFFC000
000FFFFF8000
000FFFFF8000
0007FFFF0000
0003FFFE0000
0001FFFC0000
0000FFF80000
00007FF00000
00003FE00000
00000F800000
ENDCHAR
STARTCHAR w
ENCODING 119
SWIDTH 772 0
DWIDTH 77 0
BBX 65 52 6 0
BITMAP
1FC00000000000FC00
3FE00000000003FE00
7FF00000000007FF00
7FF00000000007FF80
7FF00000000007FF80
7FF00000000007FF80
FFF80000000007FF80
FFF80000000007FF80
7FF80000000007FF80
7FF80007F00007FF80
7FF8000FF80007FF80
7FF8001FF8000FFF80
7FF8001FFC000FFF80
7FF8001FFC000FFF80
7FF8003FFE000FFF00
7FFC003FFE000FFF00
7FFC003FFE000FFF00
3FFC003FFF000FFF00
3FFC007FFF000FFF00
3FFC007FFF000FFF00
3FFC007FFF801FFF00
3FFC007FFF801FFE00
1FFE00FFFF801FFE00
1FFE00FFFFC01FFE00
1FFE00FF7FC01FFE00
1FFE00FF7FC01FFE00
1FFF01FF7FC03FFE00
0FFF01FF7FE03FFC00
0FFF01FF7FE03FFC00
0FFF01FF3FE03FFC00
0FFF03FF3FF03FFC00
07FF83FE3FF03FFC00
07FF83FE3FF07FF800
07FF87FE1FF87FF800
07FFC7FE1FF87FF800
03FFC7FC1FFC7FF800
03FFCFFC0FFCFFF000
03FFEFFC0FFEFFF000
01FFFFFC0FFFFFF000
01FFFFF807FFFFE000
00FFFFF807FFFFE000
00FFFFF807FFFFE000
007FFFF003FFFFC000
007FFFF003FFFFC000
003FFFF001FFFF8000
003FFFE000FFFF8000
001FFFC000FFFF0000
000FFFC0007FFE0000
000FFF80003FFE0000
0007FF00001FFC0000
0001FE00000FF80000
000078000003E00000
ENDCHAR
STARTCHAR x
ENCODING 120
SWIDTH 520 0
DWIDTH 52 0
BBX 44 52 4 0
BITMAP
07800000F000
1FC00001FC00
3FE00003FE00
7FF00003FF00
7FF80007FF00
7FF8000FFF80
7FFC000FFF00
3FFE001FFF00
3FFF003FFE00
1FFF803FFC00
0FFF807FFC00
07FFC0FFF800
07FFE0FFF000
03FFF1FFF000
01FFF3FFE000
00FFFFFFC000
00FFFFFFC000
007FFFFF8000
003FFFFF0000
001FFFFF0000
001FFFFE0000
000FFFFC0000
0007FFFC0000
0003FFF80000
0001FFF00000
0003FFF80000
0003FFFC0000
0007FFFC0000
000FFFFE0000
000FFFFF0000
001FFFFF8000
003FFFFF8000
003FFFFFC000
007FFFFFE000
00FFFBFFF000
01FFF9FFF000
01FFF0FFF800
03FFE07FFC00
07FFE07FFE00
07FFC03FFF00
0FFF801FFF00
1FFF800FFF80
1FFF000FFFC0
3FFE0007FFE0
7FFE0003FFE0
FFFC0001FFF0
FFF80000FFF0
FFF00000FFF0
7FF000007FF0
7FE000003FE0
3FC000001FC0
1F8000000F80
ENDCHAR
STARTCHAR y
ENCODING 121
SWIDTH 535 0
DWIDTH 54 0
BBX 45 77 4 -26
BITMAP
1F0000001FC0
7FC000003FF0
FFC000003FF8
FFE000003FF8
FFE000007FF8
FFE000007FF8
FFE000007FF8
FFF000007FF8
7FF00000FFF0
7FF00000FFF0
7FF80000FFF0
7FF80000FFF0
3FF80001FFE0
3FF80001FFE0
3FFC0001FFE0
1FFC0003FFE0
1FFC0003FFC0
1FFE0003FFC0
0FFE0003FFC0
0FFF0007FF80
0FFF0007FF80
07FF0007FF80
07FF8007FF80
03FF800FFF00
03FFC00FFF00
03FFC00FFF00
01FFE00FFE00
01FFE01FFE00
00FFF01FFE00
00FFF01FFE00
007FF83FFC00
007FFC3FFC00
003FFC3FFC00
003FFE3FF800
001FFF7FF800
001FFFFFF800
000FFFFFF800
0007FFFFF000
0007FFFFF000
0003FFFFF000
0001FFFFE000
0001FFFFE000
0000FFFFE000
00007FFFC000
00003FFFC000
00001FFFC000
00000FFF8000
000007FF8000
00000FFF8000
00000FFF0000
00000FFF0000
00001FFF0000
00001FFE0000
00001FFE0000
00003FFE0000
00003FFC0000
00003FFC0000
00007FFC0000
00007FF80000
00007FF80000
0000FFF80000
0000FFF00000
0001FFF00000
0001FFF00000
0001FFE00000
0003FFE00000
0003FFE00000
0003FFC00000
0007FFC00000
0007FFC00000
0007FF800000
000FFF800000
000FFF000000
0007FF000000
0007FE000000
0003FE000000
0001FC000000
ENDCHAR
STARTCHAR z
ENCODING 122
SWIDTH 562 0
DWIDTH 56 0
BBX 50 51 3 -1
BITMAP
07FE00001FFE00
0FFFFFFFFFFF80
0FFFFFFFFFFFC0
0FFFFFFFFFFFC0
0FFFFFFFFFFFC0
0FFFFFFFFFFFC0
0FFFFFFFFFFFC0
0FFFFFFFFFFF80
07FFFFFFFFFF80
01FFFFFFFFFF00
0003FFC07FFE00
00000000FFFC00
00000001FFF800
00000003FFF000
00000007FFE000
0000000FFFC000
0000001FFF8000
0000003FFF0000
0000007FFE0000
000000FFFC0000
000001FFF80000
000003FFF00000
000007FFE00000
00000FFFC00000
00001FFF800000
00003FFF000000
00007FFE000000
0000FFFC000000
0001FFF8000000
0003FFF0000000
0007FFE0000000
000FFFC0000000
001FFF80000000
003FFF00000000
007FFE00000000
00FFFC00000000
01FFF800000000
01FFF000000000
03FFE000000000
07FFC000000000
0FFF8FFFFC0000
1FFFFFFFFFF000
3FFFFFFFFFFC00
7FFFFFFFFFFE00
7FFFFFFFFFFE00
FFFFFFFFFFFE00
FFFFFFFFFFFE00
7FFFFFFFFFFE00
7FFFFFFFFFFC00
3FFFFFFFFFFC00
03F8000003F000
ENDCHAR
ENDFONT
